<svg xmlns="http://www.w3.org/2000/svg" width="36" height="36" viewBox="0 0 36 36"><g fill="none" fill-rule="evenodd" stroke="#183c57" transform="translate(3 3)"><circle cx="15" cy="15" r="15" fill="#FFF" fill-rule="nonzero"/><path d="M17,21.37 L16.53,21.37 L16.53,13.37 C16.53,12.82 16.08,12.37 15.53,12.37 L13,12.37 C12.45,12.37 12,12.82 12,13.37 C12,13.92 12.45,14.37 13,14.37 L13.53,14.37 L13.53,21.37 L13,21.37 C12.45,21.37 12,21.82 12,22.37 C12,22.92 12.45,23.37 13,23.37 L17,23.37 C17.55,23.37 18,22.92 18,22.37 C18,21.82 17.55,21.37 17,21.37 Z"/><circle cx="15" cy="8.13" r="1.5"/></g></svg>