<svg xmlns="http://www.w3.org/2000/svg" width="40" height="40" viewBox="0 0 40 40"><g fill="none" fill-rule="evenodd"><circle cx="20" cy="20" r="20" fill="#FFF"/><path fill="#217DBC" d="M24.6413712,9 C28.1475572,9 31.0000317,11.8524745 31.0000317,15.3586024 L31.0000317,24.6413396 C31.0000317,28.1475255 28.1475572,31 24.6413712,31 L15.3586341,31 C11.8524481,31 8.9999736,28.1475255 8.9999736,24.6413396 L8.9999736,15.3586024 C8.9999736,11.8524745 11.8524481,9 15.3586341,9 L24.6413712,9 Z M24.6413712,11.213281 L15.3586341,11.213281 C13.0728798,11.213281 11.2133126,13.0728481 11.2133126,15.3586024 L11.2133126,24.6413396 C11.2133126,26.9270938 13.0728798,28.786661 15.3586341,28.786661 L24.6413712,28.786661 C26.9271255,28.786661 28.7866926,26.9270938 28.7866926,24.6413396 L28.7866926,15.3586024 C28.7866926,13.0728481 26.9271255,11.213281 24.6413712,11.213281 Z M20.0000026,14.4319953 C23.0702455,14.4319953 25.5680189,16.9297688 25.5680189,20.0000116 C25.5680189,23.0701964 23.0702455,25.5679698 20.0000026,25.5679698 C16.9298179,25.5679698 14.4319863,23.0701964 14.4319863,20.0000116 C14.4319863,16.9297688 16.9298179,14.4319953 20.0000026,14.4319953 Z M20.0000026,16.281458 C17.9496124,16.281458 16.2815071,17.9495633 16.2815071,20.0000116 C16.2815071,22.0504019 17.9496124,23.7185071 20.0000026,23.7185071 C22.0503929,23.7185071 23.7185562,22.0504019 23.7185562,20.0000116 C23.7185562,17.9495633 22.0503929,16.281458 20.0000026,16.281458 Z M25.6772225,12.8578498 C26.3939416,12.8578498 26.9749474,13.4388557 26.9749474,14.1555747 C26.9749474,14.8722938 26.3939416,15.4532997 25.6772225,15.4532997 C24.9605034,15.4532997 24.3794395,14.8722938 24.3794395,14.1555747 C24.3794395,13.4388557 24.9605034,12.8578498 25.6772225,12.8578498 Z"/></g></svg>