<?xml version="1.0" encoding="UTF-8"?>
<svg width="185px" height="41px" viewBox="0 0 185 41" version="1.1" xmlns="http://www.w3.org/2000/svg" xmlns:xlink="http://www.w3.org/1999/xlink">
    <title>logo-white-tm</title>
    <g id="logo-white-tm" stroke="none" stroke-width="1" fill="none" fill-rule="evenodd">
        <g id="Official-DermNet-Logo-2024---LIGHT" fill="#FFFFFF" fill-rule="nonzero">
            <path d="M57.0779286,35.1530435 L53.8401207,35.1530435 L53.2850679,36.4481556 L51.2498743,36.4481556 L54.4876823,28.9550069 L56.5228758,28.9550069 L59.668175,36.4481556 L57.5404726,36.4481556 L57.0779286,35.1530435 Z M56.5228758,33.6729153 L55.505279,30.9901831 L54.4876823,33.6729153 L56.5228758,33.6729153 Z M62.3509301,28.4924668 L62.3509301,36.4481556 L60.4082453,36.4481556 L60.4082453,28.4924668 L62.3509301,28.4924668 L62.3509301,28.4924668 Z M65.4037205,28.4924668 L65.4037205,36.4481556 L63.4610357,36.4481556 L63.4610357,28.4924668 L65.4037205,28.4924668 L65.4037205,28.4924668 Z M76.0422323,32.7478352 L76.0422323,36.5406636 L74.1920563,36.5406636 L74.1920563,35.8931076 C73.8220211,36.3556476 73.2669683,36.6331716 72.4343891,36.6331716 C71.2317748,36.6331716 70.4917044,35.8931076 70.4917044,34.7830114 C70.4917044,33.6729153 71.2317748,33.0253593 72.7119155,33.0253593 L74.1920563,33.0253593 L74.1920563,32.9328513 C74.1920563,32.3778032 73.8220211,32.1002792 73.0819507,32.1002792 C72.6194067,32.1002792 71.9718451,32.2852952 71.3242836,32.5628192 L70.7692308,31.2677071 C71.6943188,30.8976751 72.5268979,30.620151 73.4519859,30.620151 C75.0246355,30.620151 76.0422323,31.3602151 76.0422323,32.7478352 Z M74.0995475,34.5054874 L74.0995475,34.0429474 L72.9894419,34.0429474 C72.4343891,34.0429474 72.1568627,34.2279634 72.1568627,34.6905034 C72.1568627,35.0605355 72.4343891,35.3380595 72.8969331,35.3380595 C73.5444947,35.2455515 74.0070387,34.9680275 74.0995475,34.5054874 Z M83.4429361,33.5804073 C83.4429361,35.3380595 82.4253394,36.5406636 80.760181,36.5406636 C80.0201106,36.5406636 79.372549,36.2631396 79.0025138,35.7080915 L79.0025138,36.4481556 L77.0598291,36.4481556 L77.0598291,28.4924668 L79.0025138,28.4924668 L79.0025138,31.4527231 C79.372549,30.8976751 80.0201106,30.620151 80.6676722,30.620151 C82.3328306,30.620151 83.4429361,31.8227551 83.4429361,33.5804073 Z M81.5002514,33.5804073 C81.5002514,32.7478352 81.0377074,32.1002792 80.2051282,32.1002792 C79.4650578,32.1002792 79.0025138,32.6553272 79.0025138,33.5804073 C79.0025138,34.4129794 79.4650578,35.0605355 80.2051282,35.0605355 C81.0377074,34.9680275 81.5002514,34.4129794 81.5002514,33.5804073 Z M90.2885872,33.5804073 C90.2885872,35.3380595 88.9934641,36.5406636 87.1432881,36.5406636 C85.2006033,36.5406636 83.9979889,35.3380595 83.9979889,33.5804073 C83.9979889,31.8227551 85.2931121,30.620151 87.1432881,30.620151 C88.9934641,30.620151 90.2885872,31.8227551 90.2885872,33.5804073 Z M85.8481649,33.5804073 C85.8481649,34.4129794 86.3107089,35.0605355 87.0507793,35.0605355 C87.7908497,35.0605355 88.3459025,34.5054874 88.3459025,33.5804073 C88.3459025,32.7478352 87.8833585,32.1002792 87.0507793,32.1002792 C86.4032177,32.1927872 85.8481649,32.7478352 85.8481649,33.5804073 Z M96.9492207,30.712659 L96.9492207,36.5406636 L95.0065359,36.5406636 L95.0065359,35.6155835 C94.6365008,36.2631396 93.9889392,36.6331716 93.15636,36.6331716 C91.8612368,36.6331716 91.1211664,35.8005995 91.1211664,34.4129794 L91.1211664,30.712659 L93.0638512,30.712659 L93.0638512,33.8579314 C93.0638512,34.5054874 93.4338864,34.8755195 93.9889392,34.8755195 C94.6365008,34.8755195 95.0990447,34.3204714 95.0990447,33.5804073 L95.0990447,30.712659 L96.9492207,30.712659 Z M102.222222,36.1706316 C101.759678,36.4481556 101.204625,36.5406636 100.649573,36.5406636 C99.5394671,36.5406636 98.7068879,35.8931076 98.7068879,34.6905034 L98.7068879,32.1927872 L97.8743087,32.1927872 L97.8743087,30.8976751 L98.7068879,30.8976751 L98.7068879,29.3250389 L100.649573,29.3250389 L100.649573,30.8976751 L102.129713,30.8976751 L102.129713,32.1927872 L100.649573,32.1927872 L100.649573,34.4129794 C100.649573,34.8755195 100.83459,35.0605355 101.204625,35.0605355 C101.389643,35.0605355 101.667169,34.9680275 101.944696,34.8755195 L102.222222,36.1706316 Z M110.08547,36.1706316 C109.622926,36.4481556 109.067873,36.5406636 108.512821,36.5406636 C107.402715,36.5406636 106.570136,35.8931076 106.570136,34.6905034 L106.570136,32.1927872 L105.737557,32.1927872 L105.737557,30.8976751 L106.570136,30.8976751 L106.570136,29.3250389 L108.512821,29.3250389 L108.512821,30.8976751 L109.992961,30.8976751 L109.992961,32.1927872 L108.512821,32.1927872 L108.512821,34.4129794 C108.512821,34.8755195 108.697838,35.0605355 109.067873,35.0605355 C109.252891,35.0605355 109.530417,34.9680275 109.807944,34.8755195 L110.08547,36.1706316 Z M117.02363,32.8403432 L117.02363,36.5406636 L115.080945,36.5406636 L115.080945,33.3953913 C115.080945,32.7478352 114.71091,32.3778032 114.063348,32.3778032 C113.323278,32.3778032 112.953243,32.9328513 112.953243,33.6729153 L112.953243,36.5406636 L111.010558,36.5406636 L111.010558,28.5849748 L112.953243,28.5849748 L112.953243,31.7302471 C113.323278,31.0826911 114.063348,30.712659 114.895928,30.712659 C116.191051,30.620151 117.02363,31.4527231 117.02363,32.8403432 Z M123.869281,34.1354554 L119.798894,34.1354554 C119.983912,34.7830114 120.446456,35.1530435 121.094017,35.1530435 C121.556561,35.1530435 122.111614,34.9680275 122.481649,34.5979954 L123.499246,35.6155835 C122.944193,36.2631396 122.019105,36.6331716 121.001508,36.6331716 C119.058824,36.6331716 117.948718,35.4305675 117.948718,33.6729153 C117.948718,31.8227551 119.151332,30.712659 121.001508,30.712659 C122.944193,30.620151 123.96179,32.0077712 123.869281,34.1354554 Z M122.019105,33.1178673 C122.019105,32.4703112 121.556561,32.0077712 120.908999,32.0077712 C120.261438,32.0077712 119.891403,32.4703112 119.706385,33.1178673 L122.019105,33.1178673 Z M130.067371,31.9152632 C129.789844,31.9152632 129.512318,32.0077712 129.512318,32.2852952 C129.512318,33.0253593 132.565108,32.6553272 132.565108,34.6905034 C132.565108,35.8931076 131.547511,36.5406636 130.067371,36.5406636 C129.049774,36.5406636 128.124686,36.2631396 127.477124,35.7080915 L128.124686,34.5054874 C128.772247,34.9680275 129.512318,35.2455515 130.159879,35.2455515 C130.529915,35.2455515 130.807441,35.1530435 130.807441,34.8755195 C130.807441,34.0429474 127.847159,34.5054874 127.847159,32.4703112 C127.847159,31.2677071 128.864756,30.620151 130.252388,30.620151 C131.084967,30.620151 131.917547,30.8976751 132.657617,31.2677071 L132.010055,32.4703112 C131.177476,32.1927872 130.529915,31.9152632 130.067371,31.9152632 Z M136.172951,34.3204714 L135.617898,34.9680275 L135.617898,36.5406636 L133.675214,36.5406636 L133.675214,28.5849748 L135.617898,28.5849748 L135.617898,32.7478352 L137.468074,30.805167 L139.595777,30.805167 L137.468074,33.0253593 L139.595777,36.6331716 L137.375566,36.6331716 L136.172951,34.3204714 Z M142.278532,30.712659 L142.278532,36.5406636 L140.335847,36.5406636 L140.335847,30.712659 L142.278532,30.712659 Z M142.186023,29.0475149 C142.186023,29.5100549 141.815988,29.880087 141.353444,29.880087 C140.8909,29.880087 140.520865,29.5100549 140.520865,29.0475149 C140.520865,28.4924668 140.8909,28.1224348 141.353444,28.1224348 C141.815988,28.1224348 142.186023,28.4924668 142.186023,29.0475149 Z M149.494218,32.8403432 L149.494218,36.5406636 L147.551533,36.5406636 L147.551533,33.3953913 C147.551533,32.7478352 147.181498,32.3778032 146.533937,32.3778032 C145.886375,32.3778032 145.423831,32.8403432 145.423831,33.4878993 L145.423831,36.5406636 L143.481146,36.5406636 L143.481146,30.712659 L145.423831,30.712659 L145.423831,31.6377391 C145.793866,30.9901831 146.533937,30.620151 147.366516,30.620151 C148.661639,30.620151 149.494218,31.4527231 149.494218,32.8403432 Z" id="Shape" opacity="0.5"></path>
            <path d="M59.9457014,7.49314874 L51.8974359,7.49314874 L51.8974359,26.0872586 L59.7606838,26.0872586 C65.7737557,26.0872586 69.8441428,22.2944302 69.8441428,16.7439497 C69.8441428,11.2859771 65.8662645,7.49314874 59.9457014,7.49314874 Z M60.0382102,22.2019222 L56.7078934,22.2019222 L56.7078934,11.4709931 L59.7606838,11.4709931 C62.7209653,11.4709931 64.8486677,13.6911854 64.8486677,16.8364577 C64.8486677,20.074238 62.9059829,22.2019222 60.0382102,22.2019222 Z M78.5399698,11.5635011 C74.0070387,11.5635011 71.0467572,14.5237574 71.0467572,18.9641419 C71.0467572,23.3120183 73.9145299,26.2722746 78.6324786,26.2722746 C81.3152338,26.2722746 83.4429361,25.3471945 84.9230769,23.6820503 L82.5178482,21.2768421 C81.5927602,22.2019222 80.3901458,22.7569703 79.0950226,22.7569703 C77.4298643,22.7569703 76.3197587,21.8318902 75.8572147,20.259254 L85.8481649,20.259254 C86.1256913,14.9862975 83.6279537,11.5635011 78.5399698,11.5635011 Z M75.7647059,17.6690297 C76.0422323,16.0038856 77.0598291,14.8937895 78.6324786,14.8937895 C80.2051282,14.8937895 81.3152338,16.0038856 81.3152338,17.6690297 L75.7647059,17.6690297 Z M92.9713424,14.1537254 L92.9713424,11.7485172 L88.2533937,11.7485172 L88.2533937,26.0872586 L92.9713424,26.0872586 L92.9713424,18.7791259 C93.2488688,16.7439497 95.0065359,15.6338535 97.5967823,15.9113776 L97.5967823,11.5635011 C95.6540975,11.5635011 93.9889392,12.4885812 92.9713424,14.1537254 Z M118.873806,11.5635011 C116.561086,11.5635011 114.803419,12.6735973 113.878331,14.8012815 C113.13826,12.7661053 111.473102,11.5635011 109.067873,11.5635011 C107.03268,11.5635011 105.367521,12.3960732 104.349925,14.1537254 L104.349925,11.7485172 L99.6319759,11.7485172 L99.6319759,26.0872586 L104.349925,26.0872586 L104.349925,18.9641419 C104.349925,17.1139817 105.367521,15.7263616 107.125189,15.7263616 C108.605329,15.7263616 109.530417,16.7439497 109.530417,18.3165858 L109.530417,25.9947506 L114.248366,25.9947506 L114.248366,18.8716339 C114.248366,17.0214737 115.265963,15.6338535 116.931121,15.6338535 C118.411262,15.6338535 119.33635,16.6514416 119.33635,18.2240778 L119.33635,25.9022426 L124.054299,25.9022426 L124.054299,16.8364577 C124.054299,13.6911854 122.019105,11.5635011 118.873806,11.5635011 Z M126.552036,7.49314874 L126.552036,26.0872586 L131.084967,26.0872586 L131.084967,14.9862975 L139.503268,26.1797666 L143.758673,26.1797666 L143.758673,7.49314874 L139.225742,7.49314874 L139.225742,18.6866178 L130.807441,7.49314874 L126.552036,7.49314874 Z M153.842132,11.5635011 C149.309201,11.5635011 146.348919,14.5237574 146.348919,18.9641419 C146.348919,23.3120183 149.216692,26.2722746 153.934641,26.2722746 C156.617396,26.2722746 158.745098,25.3471945 160.225239,23.6820503 L157.727501,21.1843341 C156.802413,22.1094142 155.599799,22.6644622 154.304676,22.6644622 C152.639517,22.6644622 151.529412,21.7393822 151.066868,20.166746 L161.057818,20.166746 C161.427853,14.9862975 158.837607,11.5635011 153.842132,11.5635011 Z M150.974359,17.6690297 C151.251885,16.0038856 152.269482,14.8937895 153.842132,14.8937895 C155.414781,14.8937895 156.524887,16.0038856 156.524887,17.6690297 L150.974359,17.6690297 Z M171.973856,22.0169062 C171.326295,22.2944302 170.678733,22.4794462 170.216189,22.4794462 C169.38361,22.4794462 168.921066,22.0169062 168.921066,20.9993181 L168.921066,15.5413455 L172.621418,15.5413455 L172.621418,12.3960732 L168.921066,12.3960732 L168.921066,8.41822883 L164.203117,8.41822883 L164.203117,12.3960732 L162.167924,12.3960732 L162.167924,15.5413455 L164.203117,15.5413455 L164.203117,21.7393822 C164.203117,24.6996384 166.238311,26.3647826 169.013575,26.3647826 C170.401207,26.3647826 171.881347,25.9947506 172.898944,25.4397025 L171.973856,22.0169062 Z M35.4308698,16.0963936 C34.0432378,16.0963936 32.6556058,16.0038856 31.2679739,15.8188696 C32.1930618,15.3563295 33.025641,14.8937895 33.8582202,14.4312494 C36.8185018,14.5237574 39.6862745,14.3387414 42.3690297,13.4136613 C42.5540473,13.8762014 42.7390649,14.4312494 42.9240825,14.9862975 C40.5188537,15.8188696 38.0211161,16.0963936 35.4308698,16.0963936 Z M23.404726,12.9511213 C24.792358,13.2286453 26.1799899,13.5061693 27.5676219,13.7836934 C26.4575163,14.0612174 25.5324284,14.1537254 24.9773756,14.0612174 C24.0522876,13.8762014 23.5897436,13.4136613 23.404726,12.9511213 Z M35.4308698,19.5191899 C32.4705882,19.5191899 29.4177979,19.1491579 26.2724987,18.5016018 C26.7350427,17.9465538 27.4751131,17.5765217 28.3076923,17.2064897 C33.6732026,18.0390618 38.8536953,18.3165858 43.2941176,16.4664256 C43.3866264,17.0214737 43.4791352,17.5765217 43.571644,18.1315698 C40.9813977,19.1491579 38.2061337,19.5191899 35.4308698,19.5191899 Z M36.4484666,12.7661053 C37.3735546,12.1185492 38.1136249,11.4709931 38.8536953,10.9159451 C39.5937657,10.8234371 40.2413273,10.7309291 40.9813977,10.545913 C41.2589241,11.0084531 41.5364505,11.5635011 41.7214681,12.0260412 C40.0563097,12.4885812 38.2986425,12.6735973 36.4484666,12.7661053 Z M25.1623932,3.23778032 C28.6777275,3.97784439 32.1930618,4.44038444 35.5233786,4.44038444 C36.1709402,4.90292449 36.8185018,5.45797254 37.3735546,6.01302059 C36.725993,6.01302059 36.0784314,6.1055286 35.4308698,6.1055286 C32.2855706,6.1055286 29.1402715,5.64298856 25.9024635,5.0879405 C25.717446,4.34787643 25.4399196,3.70032037 25.1623932,3.23778032 Z M38.8536953,7.58565675 C39.0387129,7.77067277 39.2237305,8.0481968 39.4087481,8.32572082 C38.9462041,8.69575286 38.4836601,8.97327689 37.9286073,9.34330892 C37.0960282,9.43581693 36.263449,9.43581693 35.4308698,9.43581693 C32.100553,9.43581693 28.6777275,8.88076888 25.254902,8.23321281 C25.5324284,7.77067277 25.717446,7.21562471 25.9024635,6.66057666 C30.3428859,7.58565675 34.7833082,8.14070481 38.8536953,7.58565675 Z M35.0608346,36.1706316 C34.2282554,36.1706316 33.488185,36.0781236 32.6556058,36.0781236 C32.100553,35.4305675 31.5455003,34.8755195 30.9904475,34.3204714 C33.1181498,34.5979954 35.1533434,34.6905034 37.188537,34.5979954 C36.4484666,35.1530435 35.800905,35.7080915 35.0608346,36.1706316 Z M41.5364505,28.7699908 C39.5937657,29.2325309 37.5585721,29.5100549 35.4308698,29.5100549 C32.563097,29.5100549 29.6028155,29.1400229 26.6425339,28.5849748 C26.3650075,28.0299268 26.1799899,27.4748787 25.9949723,26.8273227 C31.8230266,27.9374188 37.4660633,28.4924668 42.3690297,26.8273227 C42.0915033,27.5673867 41.8139769,28.2149428 41.5364505,28.7699908 Z M31.4529915,12.5810892 C28.8627451,12.3035652 26.1799899,11.8410252 23.4972348,11.2859771 C23.5897436,10.8234371 23.7747612,10.453405 23.9597788,10.268389 C24.0522876,10.083373 24.1447964,9.99086499 24.2373052,9.80584897 C27.8451483,10.545913 31.3604827,11.1009611 34.7833082,11.1934691 C33.8582202,11.5635011 32.6556058,12.1185492 31.4529915,12.5810892 Z M35.4308698,32.8403432 C33.3031674,32.8403432 31.1754651,32.6553272 29.0477627,32.2852952 C28.4927099,31.6377391 28.0301659,30.9901831 27.5676219,30.435135 C32.0080442,31.1751991 36.3559578,31.5452311 40.3338361,30.712659 C39.8712921,31.3602151 39.4087481,32.0077712 38.9462041,32.5628192 C37.7435897,32.8403432 36.6334842,32.8403432 35.4308698,32.8403432 Z M20.166918,33.9504394 C20.7219708,33.0253593 21.2770236,32.6553272 21.8320764,32.6553272 C22.017094,32.6553272 22.2021116,32.7478352 22.479638,32.7478352 C23.0346908,33.0253593 23.6822524,33.5804073 24.1447964,34.0429474 C24.4223228,34.3204714 24.6998492,34.5979954 24.9773756,34.8755195 C23.404726,34.6905034 21.8320764,34.3204714 20.166918,33.9504394 C20.2594268,33.9504394 20.2594268,33.9504394 20.166918,33.9504394 Z M0.462543992,16.1889016 C0.55505279,15.5413455 0.740070387,14.8937895 1.01759678,14.3387414 C1.29512318,14.2462334 1.57264957,14.1537254 1.94268477,14.1537254 C6.84565108,13.2286453 11.7486174,13.8762014 14.5238813,15.1713135 C15.2639517,15.5413455 15.9115133,15.9113776 16.3740573,16.4664256 C10.3609854,15.2638215 4.81045752,14.5237574 0.462543992,16.1889016 Z M43.3866264,23.1270023 C43.2941176,23.7745584 43.1091001,24.4221144 43.0165913,24.9771625 C40.6113625,25.8097346 38.1136249,26.0872586 35.4308698,26.0872586 C32.1930618,26.0872586 28.8627451,25.6247185 25.5324284,24.9771625 C25.3474108,24.3296064 25.254902,23.7745584 25.1623932,23.2195103 C31.638009,24.6071304 38.0211161,25.3471945 43.3866264,23.1270023 Z M20.2594268,0.555048055 C19.7043741,0.462540046 19.2418301,0.370032037 18.6867773,0.185016018 C19.7043741,0.0925080092 20.7219708,0 21.8320764,0 C25.8099548,0 29.4177979,0.925080092 32.6556058,2.68273227 C28.5852187,2.31270023 24.4223228,1.48012815 20.2594268,0.555048055 Z M0.185017597,22.9419863 C0.0925087984,22.3869382 0.0925087984,21.8318902 0,21.2768421 C4.99547511,19.4266819 10.9160382,20.351762 17.2066365,21.6468741 C17.1141277,22.1094142 17.0216189,22.6644622 16.9291101,23.2195103 C10.7310206,21.9243982 4.81045752,21.0918261 0.185017597,22.9419863 Z M14.7088989,39.2233959 C13.0437406,38.6683478 11.5635998,38.0207918 10.083459,37.1882197 C11.5635998,37.3732357 13.1362494,37.5582517 14.7088989,37.9282838 C14.7088989,38.2983158 14.7088989,38.7608558 14.7088989,39.2233959 Z M14.8014077,36.2631396 C12.2111614,35.8005995 9.71342383,35.4305675 7.30819507,35.3380595 C6.66063348,34.7830114 6.10558069,34.3204714 5.5505279,33.6729153 C8.51080945,33.5804073 11.6561086,33.9504394 14.8939165,34.5979954 C14.8939165,35.0605355 14.8939165,35.6155835 14.8014077,36.2631396 Z M20.629462,39.1308879 C22.2021116,39.5009199 23.7747612,39.7784439 25.3474108,40.148476 C24.2373052,40.333492 23.0346908,40.426 21.8320764,40.426 C20.8144796,40.426 19.8893917,40.333492 18.8717949,40.240984 C18.8717949,39.7784439 18.9643037,39.3159039 19.0568125,38.8533638 C19.5193565,38.8533638 20.0744093,38.9458719 20.629462,39.1308879 Z M4.16289593,32.1002792 C3.79286073,31.6377391 3.42282554,31.0826911 3.05279035,30.620151 C6.75314228,30.065103 10.9160382,30.527643 15.2639517,31.3602151 C15.1714429,31.9152632 15.0789341,32.3778032 15.0789341,32.9328513 C11.1935646,32.1927872 7.49321267,31.7302471 4.16289593,32.1002792 Z M29.4177979,39.0383799 C29.4177979,39.0383799 29.4177979,39.0383799 29.4177979,39.0383799 C26.3650075,38.6683478 23.2197084,37.9282838 20.2594268,37.2807277 C19.8893917,37.1882197 19.6118653,37.0957117 19.2418301,37.0957117 C19.3343389,36.5406636 19.4268477,35.9856156 19.6118653,35.5230755 C19.9819005,35.6155835 20.2594268,35.7080915 20.629462,35.7080915 C22.8496732,36.1706316 25.1623932,36.7256796 27.3826043,37.0957117 C27.9376571,37.6507597 28.6777275,38.2983158 29.4177979,39.0383799 Z M43.571644,19.7042059 C43.571644,19.889222 43.571644,19.98173 43.571644,20.166746 C43.571644,20.629286 43.571644,20.9993181 43.4791352,21.4618581 C40.8888889,22.4794462 38.2061337,22.8494783 35.338361,22.8494783 C32.0080442,22.8494783 28.4927099,22.2944302 24.9773756,21.6468741 C24.9773756,21.0918261 25.0698844,20.536778 25.254902,20.074238 C31.8230266,21.2768421 38.2986425,22.0169062 43.571644,19.7042059 Z M0.925087984,26.0872586 C0.740070387,25.5322105 0.647561589,25.0696705 0.462543992,24.5146224 C5.18049271,22.9419863 10.7310206,23.6820503 16.6515837,24.8846545 C16.6515837,24.8846545 16.6515837,24.8846545 16.6515837,24.8846545 C16.5590749,25.4397025 16.3740573,25.9022426 16.2815485,26.4572906 C10.6385118,25.3471945 5.27300151,24.6071304 0.925087984,26.0872586 Z M3.88536953,8.69575286 C4.34791352,8.0481968 4.81045752,7.49314874 5.36551031,6.93810069 C9.52840623,6.75308467 14.0613374,7.58565675 18.8717949,8.60324485 C19.2418301,9.15829291 19.7043741,9.52832494 20.0744093,9.99086499 C20.166918,10.175881 20.2594268,10.360897 20.3519356,10.545913 C20.3519356,10.545913 20.2594268,10.545913 20.2594268,10.545913 C14.3388638,9.34330892 8.69582705,8.0481968 3.88536953,8.69575286 Z M18.1317245,6.75308467 C14.246355,5.92051259 10.546003,5.27295652 7.21568627,5.18044851 C7.86324786,4.62540046 8.51080945,4.16286041 9.25087984,3.70032037 C12.1186526,3.97784439 15.0789341,4.53289245 18.1317245,5.18044851 C18.1317245,5.27295652 18.1317245,5.45797254 18.1317245,5.64298856 C18.0392157,6.01302059 18.0392157,6.38305263 18.1317245,6.75308467 Z M2.22021116,29.0475149 C1.94268477,28.5849748 1.75766717,28.0299268 1.48014077,27.5673867 C5.7355455,26.4572906 10.7310206,27.1048467 15.9115133,28.1224348 C15.8190045,28.6774828 15.7264957,29.2325309 15.5414781,29.6950709 C10.7310206,28.6774828 6.10558069,28.1224348 2.22021116,29.0475149 Z M4.99547511,11.9335332 C3.88536953,12.0260412 2.77526395,12.2110572 1.66515837,12.4885812 C1.94268477,11.8410252 2.31271996,11.1934691 2.59024635,10.6384211 C7.86324786,9.71334096 13.9688286,11.0084531 20.3519356,12.3960732 C20.2594268,13.0436293 19.9819005,13.5986773 19.5193565,13.5986773 C18.7792861,13.5061693 13.783811,11.5635011 8.78833585,11.6560092 C7.58572147,11.4709931 6.29059829,11.6560092 4.99547511,11.9335332 Z M0,19.7042059 C0,19.0566499 0.0925087984,18.5016018 0.0925087984,17.9465538 C4.99547511,16.1889016 10.9160382,17.0214737 17.2066365,18.3165858 C17.2991453,18.7791259 17.3916541,19.3341739 17.3916541,19.98173 C10.8235294,18.5941098 4.81045752,17.6690297 0,19.7042059 Z M18.5942685,3.51530435 C16.2815485,3.0527643 13.9688286,2.59022426 11.7486174,2.22019222 C12.6737054,1.75765217 13.6913022,1.38762014 14.7088989,1.0175881 C16.4665661,1.29511213 18.2242333,1.75765217 19.9819005,2.12768421 C19.4268477,2.49771625 18.9643037,2.96025629 18.5942685,3.51530435 Z M179.282051,14.9862975 C176.691805,14.9862975 174.564103,12.8586133 174.564103,10.268389 C174.564103,7.67816476 176.691805,5.55048055 179.282051,5.55048055 C181.872298,5.55048055 184,7.67816476 184,10.268389 C184,12.8586133 181.872298,14.9862975 179.282051,14.9862975 Z M179.282051,6.38305263 C177.154349,6.38305263 175.396682,8.14070481 175.396682,10.268389 C175.396682,12.3960732 177.154349,14.1537254 179.282051,14.1537254 C181.409754,14.1537254 183.167421,12.3960732 183.167421,10.268389 C183.25993,8.14070481 181.502262,6.38305263 179.282051,6.38305263 Z M180.484666,12.3035652 L179.652086,11.1009611 C179.559578,11.1009611 179.559578,11.1009611 179.467069,11.1009611 L178.541981,11.1009611 L178.541981,12.3035652 L177.801911,12.3035652 L177.801911,8.14070481 L179.559578,8.14070481 C180.669683,8.14070481 181.317245,8.69575286 181.317245,9.62083295 C181.317245,10.268389 181.039718,10.7309291 180.392157,10.9159451 L181.317245,12.3035652 L180.484666,12.3035652 Z M179.467069,8.78826087 L178.541981,8.78826087 L178.541981,10.453405 L179.467069,10.453405 C180.11463,10.453405 180.484666,10.175881 180.484666,9.62083295 C180.484666,9.0657849 180.11463,8.78826087 179.467069,8.78826087 Z" id="Shape"></path>
        </g>
    </g>
</svg>