<?xml version="1.0" encoding="UTF-8"?>
<svg width="36px" height="36px" viewBox="0 0 36 36" version="1.1" xmlns="http://www.w3.org/2000/svg" xmlns:xlink="http://www.w3.org/1999/xlink">
    <title>glossary</title>
    <g id="glossary" stroke="none" stroke-width="1" fill="none" fill-rule="evenodd">
        <circle id="Oval" stroke="#183c57" fill="#FFFFFF" fill-rule="nonzero" cx="18" cy="18" r="15"></circle>
        <path d="M10.732148,19.22824 L10.732681,18.240548 L10.7336376,11.7720378 C10.7484348,11.3322849 10.8553761,10.9660775 11.0684921,10.6804256 C11.3332707,10.3255273 11.7288591,10.1413142 12.2196363,10.1299837 L23.070859,10.1299837 C23.6382916,10.1419732 24.1003015,10.3215718 24.4227802,10.6810149 C24.7363312,11.0305068 24.8839255,11.5118915 24.8852737,12.094919 L25.0741978,19.97905 L25.0741978,25.725 L21.5996491,25.7249837 L21.6,28.2594985 L20.8401058,27.7971475 L17.85,25.9775 L14.8598942,27.7971475 L14.1,28.2594985 L14.0999497,25.8065755 C11.9887547,25.6814517 10.8089898,24.5813467 10.7284956,22.5889337 L10.7276491,22.5659837 L10.7246988,22.3801152 L10.7246863,22.566692 C10.7285946,21.6171714 10.7310819,20.504344 10.732148,19.22824 Z M20.5996491,20.4119837 L15.1,20.4125 L15.1,26.4805 L17.5901058,24.9654185 L17.85,24.8072882 L18.1098942,24.9654185 L20.6,26.4805 L20.5996491,20.4119837 Z M14.0995425,20.4120568 C12.4737504,20.4781381 11.7414671,21.1095107 11.7249945,22.3608328 C11.7254492,22.3783183 11.7253929,22.3929989 11.7253363,22.4076422 L11.7249945,22.3608328 C11.7241902,22.4219305 11.7250924,22.4845062 11.7276805,22.5485663 C11.7853575,23.9762038 12.5231945,24.7026948 14.0990665,24.8058041 L14.0995425,20.4120568 Z M24.0736491,20.4119837 L21.5996491,20.4119837 L21.599682,24.7249837 L24.073682,24.7249837 L24.0736491,20.4119837 Z M12.2313155,11.1298473 C12.0459121,11.1341792 11.941241,11.1829213 11.8700019,11.2784072 C11.7907534,11.3846287 11.7406534,11.5594062 11.7329846,11.8170129 L11.7326809,18.2408961 L11.7321474,19.2292945 C11.7318903,19.5370063 11.7315506,19.8352413 11.7311284,20.1239998 C12.2963671,19.6938392 13.0923176,19.4552908 14.0995839,19.4135378 L14.1445175,19.4118108 C14.1832467,19.4104383 14.2222841,19.4093533 14.2616285,19.4085562 L14.5013711,19.4072296 L14.7484316,19.4128265 L24.0596491,19.4119837 L23.885419,12.1081609 C23.884497,11.7408236 23.8088853,11.4942132 23.6784367,11.3488118 C23.5569159,11.2133616 23.3587822,11.1363405 23.0603931,11.1299837 L12.2313155,11.1298473 Z M21.1,15.69375 L21.1,16.69375 L14.6,16.69375 L14.6,15.69375 L21.1,15.69375 Z M21.1,13.56875 L21.1,14.56875 L14.6,14.56875 L14.6,13.56875 L21.1,13.56875 Z" id="Combined-Shape" fill="#183c57" fill-rule="nonzero"></path>
    </g>
</svg>