<svg xmlns="http://www.w3.org/2000/svg" width="36" height="36" viewBox="0 0 36 36"><g fill="none" fill-rule="evenodd" transform="translate(3 3)"><circle cx="15" cy="15" r="15" fill="#FFF" fill-rule="nonzero" stroke="#183c57"/><path stroke="#183c57" d="M10.07,6 L19.92,6 C20.47,6 20.92,6.45 20.92,7 L20.92,10.98 L9.07,10.98 L9.07,7 C9.07,6.45 9.52,6 10.07,6 Z"/><rect width="11.85" height="8.44" x="9.07" y="15.56" stroke="#183c57" rx="1"/><path stroke="#183c57" d="M9.07,19.77 L7.16,19.77 C6.52,19.77 6,19.25 6,18.61 L6,12.15 C6,11.51 6.52,10.99 7.16,10.99 L22.83,10.99 C23.47,10.99 23.99,11.51 23.99,12.15 L23.99,18.61 C23.99,19.25 23.47,19.77 22.83,19.77 L20.92,19.77"/><line x1="11.56" x2="18.44" y1="18.24" y2="18.24" stroke="#183c57" stroke-linecap="round"/><line x1="11.56" x2="18.44" y1="21.26" y2="21.26" stroke="#183c57" stroke-linecap="round"/><circle cx="21.8" cy="13.12" r="1" fill="#183c57" fill-rule="nonzero"/></g></svg>